<svg width="1000" height="1000" viewBox="0 0 1000 1000" fill="none" xmlns="http://www.w3.org/2000/svg">
<rect width="1000" height="1000" fill="#E4E4E7"/>
<path fill-rule="evenodd" clip-rule="evenodd" d="M469.633 623H530.368C573.022 623 594.355 623 609.676 612.955C616.288 608.625 621.982 603.033 626.431 596.5C636.667 581.467 636.667 560.516 636.667 518.641C636.667 476.767 636.667 455.816 626.431 440.782C621.982 434.25 616.288 428.658 609.676 424.328C599.836 417.863 587.508 415.554 568.635 414.734C559.628 414.734 551.879 408.037 550.116 399.359C548.769 393.002 545.268 387.305 540.206 383.231C535.144 379.158 528.83 376.957 522.332 377H477.669C464.167 377 452.536 386.362 449.885 399.359C448.122 408.037 440.373 414.734 431.367 414.734C412.507 415.554 400.179 417.877 390.326 424.328C383.718 428.66 378.029 434.251 373.584 440.782C363.334 455.816 363.334 476.753 363.334 518.641C363.334 560.53 363.334 581.453 373.57 596.5C377.998 603.006 383.684 608.595 390.326 612.955C405.646 623 426.98 623 469.633 623ZM500.001 462.731C468.554 462.731 443.052 487.755 443.052 518.628C443.052 549.501 468.567 574.565 500.001 574.565C531.434 574.565 556.95 549.528 556.95 518.655C556.95 487.782 531.434 462.731 500.001 462.731ZM500.001 485.09C481.141 485.09 465.834 500.109 465.834 518.641C465.834 537.16 481.141 552.179 500.001 552.179C518.861 552.179 534.167 537.16 534.167 518.641C534.167 500.123 518.861 485.09 500.001 485.09ZM564.535 473.91C564.535 467.733 569.632 462.731 575.933 462.731H591.103C597.389 462.731 602.501 467.733 602.501 473.91C602.472 476.902 601.257 479.76 599.122 481.856C596.987 483.952 594.108 485.115 591.116 485.09H575.933C574.45 485.104 572.979 484.827 571.604 484.273C570.229 483.718 568.977 482.899 567.918 481.861C566.86 480.823 566.016 479.586 565.436 478.222C564.855 476.858 564.549 475.393 564.535 473.91Z" fill="#9F9FA9"/>
</svg>
